<svg width="212" height="52" viewBox="0 0 212 52" fill="none" xmlns="http://www.w3.org/2000/svg">
<g clip-path="url(#clip0_289_31717)">
<path d="M205.399 13.0727H199.807V32.2466H205.399V13.0727ZM194.049 12.0847H211.207V8.03229H194.049V12.0847ZM177.174 32.2469H182.682L186.905 13.2904L188.824 23.1537H185.636L184.818 27.1392H189.592L190.76 32.2469H196.552L190.443 8.03229H183.299L177.174 32.2469ZM163.053 32.2469H168.628V8.03229H163.053V32.2469ZM169.479 32.2469H176.723V28.0605H169.479V32.2469ZM176.722 8.03229H169.479V12.0847H176.722V8.03229ZM176.305 17.6109H169.479V21.6634H176.305V17.6109ZM150.451 17.8453V21.8978H152.32C154.3 21.8869 155.296 22.9696 155.308 25.1465C155.296 27.2009 154.35 28.2169 152.47 28.1944H150.451V32.2469H152.537C158.145 32.2469 160.96 30.0364 160.983 25.6156C160.893 22.3444 159.681 20.4188 157.344 19.8381C159.525 19.4253 160.61 17.6446 160.599 14.4961C160.621 10.187 157.811 8.03229 152.17 8.03229H150.451V12.0847H152.303C154.05 12.0739 154.918 13.0282 154.907 14.9483C154.951 16.8574 154.095 17.8231 152.337 17.8453H150.451ZM143.891 32.2469H149.416V8.03229H143.891V32.2469ZM118.937 32.2469H124.512V8.03229H118.937V32.2469ZM125.363 32.2469H132.607V28.0605H125.363V32.2469ZM132.607 8.03229H125.363V12.0847H132.607V8.03229ZM132.19 17.6109H125.363V21.6634H132.19V17.6109ZM98.7069 20.257L100.61 30.1872L103.815 15.434L107.303 32.2469H111.609L106.118 8.03229H101.462L98.7069 20.257ZM89.9277 8.03229L95.8028 32.2469H99.8419L95.302 8.03229H89.9277ZM117.668 8.03229H112.327L110.007 20.1061L112.26 29.7853L117.668 8.03229Z" fill="white"/>
<path d="M204.114 41.0014C204.101 40.9925 204.033 40.9441 203.91 40.8565C203.786 40.7689 203.608 40.6466 203.375 40.4893C202.909 40.1657 202.103 39.613 200.957 38.8312C200.679 38.6469 200.569 38.3705 200.628 38.0021C200.641 37.5662 200.952 37.3213 201.561 37.2673V35.6295C199.452 35.6879 198.399 36.5215 198.404 38.1301C198.534 38.9839 198.935 39.6761 199.606 40.2063C200.542 40.8307 201.55 41.5633 202.63 42.4034C202.965 42.6373 203.158 42.9292 203.207 43.2798C203.203 43.7516 202.838 44.0123 202.112 44.0616V45.7399C204.302 45.6816 205.398 44.8525 205.398 43.2528C205.398 42.381 204.97 41.6306 204.114 41.0014ZM198.182 42.6529C198.182 44.6209 199.315 45.6499 201.582 45.7399V44.0549C200.776 43.974 200.359 43.5067 200.332 42.6529H198.182ZM205.33 38.4334C205.33 36.6404 204.258 35.706 202.112 35.6295V37.274C202.744 37.3596 203.064 37.7483 203.073 38.4403L205.33 38.4334ZM192.169 45.5379H194.413V35.7913H192.169V45.5379ZM194.756 45.5379H197.671V43.8528H194.756V45.5379ZM197.671 35.7913H194.756V37.4225H197.671V35.7913ZM197.503 39.6466H194.756V41.2777H197.503V39.6466ZM184.416 42.8753C184.407 44.6952 185.462 45.6457 187.58 45.7266V44.1561C186.994 44.0797 186.701 43.7674 186.701 43.2192V38.1503C186.701 37.5798 186.994 37.2563 187.58 37.1797V35.5823C185.467 35.6768 184.412 36.562 184.416 38.2379V42.8753ZM188.037 45.7266C190.228 45.6768 191.325 44.7402 191.329 42.9158V41.8844H189.018V43.2192C189.018 43.7988 188.691 44.1133 188.037 44.1627V45.7266ZM188.037 37.1662C188.691 37.2159 189.018 37.5437 189.018 38.1503V39.1884H191.329V38.2785C191.343 36.4901 190.245 35.589 188.037 35.5756V37.1662ZM183.516 35.7913H181.225V45.5379H183.516V35.7913ZM176.159 39.7412V41.3723H176.912C177.579 41.3634 177.92 41.7813 177.933 42.6259L177.939 44.6616C177.922 45.0525 177.971 45.3446 178.087 45.5379H180.365C180.257 45.358 180.204 45.0683 180.204 44.6682L180.21 42.8686C180.295 41.5566 179.872 40.7815 178.941 40.5432C179.818 40.3725 180.253 39.6558 180.244 38.393C180.253 36.6585 179.122 35.7913 176.851 35.7913H176.159V37.4225H176.905C177.608 37.418 177.957 37.8023 177.953 38.5751C177.971 39.3434 177.626 39.7322 176.918 39.7412H176.159ZM173.519 45.5379H175.743V35.7913H173.519V45.5379ZM168.89 39.7412V41.3723H169.642C171.868 41.3812 172.979 40.3881 172.975 38.393C172.983 36.6585 171.853 35.7913 169.582 35.7913H168.89V37.4225H169.636C170.339 37.418 170.688 37.8023 170.684 38.5751C170.702 39.3434 170.357 39.7322 169.649 39.7412H168.89ZM166.25 45.5379H168.474V35.7913H166.25V45.5379ZM160.29 41.0014C160.277 40.9925 160.208 40.9441 160.085 40.8565C159.962 40.7689 159.784 40.6466 159.551 40.4893C159.085 40.1657 158.279 39.613 157.133 38.8312C156.855 38.6469 156.745 38.3705 156.803 38.0021C156.817 37.5662 157.128 37.3213 157.737 37.2673V35.6295C155.628 35.6879 154.575 36.5215 154.58 38.1301C154.71 38.9839 155.111 39.6761 155.782 40.2063C156.718 40.8307 157.726 41.5633 158.806 42.4034C159.141 42.6373 159.334 42.9292 159.383 43.2798C159.379 43.7516 159.014 44.0123 158.288 44.0616V45.7399C160.478 45.6816 161.573 44.8525 161.573 43.2528C161.573 42.381 161.146 41.6306 160.29 41.0014ZM154.358 42.6529C154.358 44.6209 155.491 45.6499 157.757 45.7399V44.0549C156.951 43.974 156.535 43.5067 156.508 42.6529H154.358ZM161.506 38.4334C161.506 36.6404 160.433 35.706 158.288 35.6295V37.274C158.92 37.3596 159.24 37.7483 159.249 38.4403L161.506 38.4334ZM152.658 38.6491L153.726 37.1461V35.535H151.711V37.2001H152.369L151.63 38.6491H152.658ZM145.584 45.5379H147.828V35.7913H145.584V45.5379ZM148.17 45.5379H151.086V43.8528H148.17V45.5379ZM151.086 35.7913H148.17V37.4225H151.086V35.7913ZM150.918 39.6466H148.17V41.2777H150.918V39.6466ZM142.527 45.5379H144.629V35.7913H142.52L142.527 45.5379ZM137.475 45.5379H139.557V35.7913H137.475V45.5379ZM139.833 36.5665V39.95L142.245 44.8773V41.5341L139.833 36.5665ZM134.277 43.1113C134.277 43.763 133.95 44.1133 133.296 44.1627V45.7266C135.486 45.6768 136.583 44.7043 136.588 42.808V38.3458C136.583 36.5125 135.486 35.589 133.296 35.5756V37.1662C133.95 37.2201 134.277 37.5707 134.277 38.2178V43.1113ZM129.675 42.7674C129.684 44.6774 130.761 45.6635 132.906 45.7266V44.1627C132.275 44.1044 131.959 43.7538 131.959 43.1113V38.2178C131.959 37.5843 132.275 37.2359 132.906 37.1731V35.5823C130.743 35.6543 129.666 36.562 129.675 38.3054V42.7674ZM122.117 35.7913L124.717 41.4329L125.711 39.0063L124.434 35.7913H122.117ZM124.885 42.0868V45.5379H127.128V41.4329L129.836 35.7913H127.498L124.885 42.0868ZM118.186 39.7412V41.3723H118.939C119.606 41.3634 119.946 41.7813 119.96 42.6259L119.966 44.6616C119.948 45.0525 119.998 45.3446 120.114 45.5379H122.392C122.284 45.358 122.23 45.0683 122.23 44.6682L122.237 42.8686C122.322 41.5566 121.899 40.7815 120.968 40.5432C121.845 40.3725 122.28 39.6558 122.271 38.393C122.28 36.6585 121.149 35.7913 118.878 35.7913H118.186V37.4225H118.932C119.635 37.418 119.984 37.8023 119.98 38.5751C119.998 39.3434 119.653 39.7322 118.945 39.7412H118.186ZM115.546 45.5379H117.77V35.7913H115.546V45.5379ZM109.365 45.5379H111.609V35.7913H109.365V45.5379ZM111.952 45.5379H114.867V43.8528H111.952V45.5379ZM114.867 35.7913H111.952V37.4225H114.867V35.7913ZM114.699 39.6466H111.952V41.2777H114.699V39.6466ZM101.377 35.7913L104.057 45.5379H105.898L103.601 35.7913H101.377ZM105.482 41.9856L106.355 45.5379L109.009 35.7913H106.778L105.482 41.9856ZM95.7202 45.5379H97.9642V35.7913H95.7202V45.5379ZM98.3066 45.5379H101.222V43.8528H98.3066V45.5379ZM101.222 35.7913H98.3066V37.4225H101.222V35.7913ZM101.054 39.6466H98.3066V41.2777H101.054V39.6466Z" fill="white"/>
<path d="M-0.000488281 13.7346V52H82.0006V13.7288C82.0006 13.7288 76.7093 11.975 75.3473 11.522V0.0638821H53.133V4.15233C50.4497 3.26379 40.6204 0 40.6204 0L-0.000488281 13.7346Z" fill="#FFED00"/>
<path d="M74.0086 12.4919V1.40543H54.4719V6.00493L40.6263 1.41704L1.33838 14.6987V14.7394V50.6178V50.6585H80.6619V50.6178V14.7394V14.6987L74.0086 12.4919Z" fill="#E30613"/>
<path d="M9.24938 30.7969V26.7259L9.23779 30.5646C9.23779 30.6459 9.23779 30.7214 9.24938 30.7969Z" fill="white"/>
<path d="M10.7733 42.2958L10.1706 37.5627H9.25488L10.2111 44.311H11.6426L12.7496 37.5627H11.2717L10.7733 42.2958Z" fill="white"/>
<path d="M8.0267 42.3074L7.56306 37.5627H6.06201L7.17476 44.311H8.89603L9.20319 41.4363L8.66421 37.6149L8.0267 42.3074Z" fill="white"/>
<path d="M17.1427 37.5627L15.6938 44.311H17.2528L17.4383 42.9985H18.1454L18.0005 41.8079H17.6064L18.0758 38.7822L18.4235 41.2156L18.4525 41.4072L18.5047 41.8079L18.7075 43.283L18.8814 44.311H20.4462L19.0089 37.5627H17.1427Z" fill="white"/>
<path d="M18.5043 41.8079L18.4521 41.4072L18.5043 41.8079Z" fill="white"/>
<path d="M27.9459 41.8544C27.9169 41.384 27.6097 41.082 27.1809 40.9659C27.8358 40.6581 28.0038 40.147 28.0038 39.4269C28.0038 38.0854 27.3663 37.5627 26.0971 37.5627H25.5581V38.7764C26.1898 38.7764 26.468 38.8636 26.468 39.6011C26.468 40.0134 26.3637 40.4374 25.9116 40.4374H25.5581V41.6511H25.8942C26.2536 41.6802 26.3811 41.9473 26.4216 42.3596C26.468 42.772 26.4274 43.3295 26.4564 43.9277C26.4622 44.0612 26.5028 44.189 26.5433 44.3168H28.2356V44.2238C28.1661 44.16 28.1197 44.0787 28.085 43.9915C27.998 43.5618 27.9864 42.4003 27.9459 41.8602" fill="white"/>
<path d="M24.9606 37.5627H23.8247V44.3168H24.9606V37.5627Z" fill="white"/>
<path d="M32.9589 37.5627H31.707V44.3168H32.9589V37.5627Z" fill="white"/>
<path d="M35.3638 42.9636H33.5498V44.3167H35.3638V42.9636Z" fill="white"/>
<path d="M35.1957 40.1528H33.5498V41.5059H35.1957V40.1528Z" fill="white"/>
<path d="M35.2595 37.5627H33.5498V38.91H35.2595V37.5627Z" fill="white"/>
<path d="M41.6408 40.1528H40.812V41.5059H41.6408V44.311H43.1882V37.5627H41.6408V40.1528Z" fill="white"/>
<path d="M40.2148 37.5627H39.0093V44.3168H40.2148V37.5627Z" fill="white"/>
<path d="M49.2441 37.4117V38.6951C49.4818 38.8519 49.4991 39.212 49.4991 39.5256V42.3015C49.4991 42.5977 49.4818 43.0042 49.2441 43.1785V44.4677C50.5945 44.3748 51.0523 43.5908 51.0523 42.1622V39.4152C51.0523 38.2131 50.4206 37.5046 49.2441 37.4117Z" fill="white"/>
<path d="M46.8452 39.4152V42.1621C46.8452 43.5792 47.3204 44.3632 48.6476 44.4619V43.1494C48.4274 42.9636 48.3926 42.5745 48.3926 42.2899V39.5139C48.3926 39.2061 48.4274 38.8577 48.6476 38.6951V37.4058C47.4827 37.5104 46.8452 38.2131 46.8452 39.4094" fill="white"/>
<path d="M56.2568 42.6558V37.5569H54.7036V42.4467C54.7036 43.7186 55.3527 44.3632 56.477 44.4619V43.1843C56.3032 43.0798 56.2568 42.8765 56.2568 42.6558Z" fill="white"/>
<path d="M57.3234 42.6093C57.3234 42.8184 57.2596 43.0623 57.0684 43.1843V44.4619C58.4361 44.3632 58.8766 43.5211 58.8766 42.4467V37.5569H57.3234V42.6093Z" fill="white"/>
<path d="M64.6484 38.7067C64.8861 38.881 64.8745 39.2817 64.8918 39.5895H66.3233C66.3871 38.4164 65.8075 37.5452 64.6542 37.4175V38.7125L64.6484 38.7067Z" fill="white"/>
<path d="M63.7508 42.5281V42.0518H62.3135V42.772C62.3135 43.6024 62.8351 44.3632 64.0521 44.4619V43.1959C63.8203 43.0798 63.7508 42.8184 63.7508 42.5339" fill="white"/>
<path d="M64.3071 39.8914C64 39.6766 63.7971 39.4675 63.8377 39.061C63.8551 38.8867 63.9304 38.7532 64.0521 38.6777V37.4117C63.0263 37.5162 62.4004 38.155 62.4004 39.3165C62.4004 39.9089 62.5685 40.327 62.8524 40.6638C63.1422 41.0065 63.5479 41.2678 64.0231 41.5466C64.4288 41.7963 64.8867 42.017 64.8867 42.5803C64.8867 42.8184 64.8113 43.0507 64.6433 43.1668V44.4503C65.7328 44.34 66.324 43.6372 66.324 42.4467C66.324 41.6279 66.1153 41.1749 65.7502 40.8381C65.3909 40.4954 64.8867 40.2631 64.3071 39.8856" fill="white"/>
<path d="M73.4173 40.1528H71.8062V41.5059H73.4173V40.1528Z" fill="white"/>
<path d="M71.2148 37.5627H69.9282V44.3168H71.2148V37.5627Z" fill="white"/>
<path d="M73.4811 37.5627H71.8062V38.91H73.4811V37.5627Z" fill="white"/>
<path d="M73.5854 42.9636H71.8062V44.3167H73.5854V42.9636Z" fill="white"/>
<path d="M11.6078 29.7923C11.6078 30.6576 11.5151 31.8307 10.4081 31.8307C10.3444 31.8307 10.2806 31.8307 10.2227 31.8249V34.3801C13.5145 34.3627 14.8649 32.6669 14.8649 30.2452V28.5088H11.6078V29.7923Z" fill="white"/>
<path d="M10.5182 22.0916C11.1268 22.0916 11.5556 22.713 11.5556 23.9209V24.8269H14.8127V23.6364C14.8127 20.7501 13.1494 19.5421 10.3733 19.5421H10.2227V22.1032C10.3154 22.0916 10.4139 22.0858 10.5182 22.0916Z" fill="white"/>
<path d="M6.00342 24.0545V29.8678C6.00342 32.4405 6.9307 34.0085 9.24892 34.3221V30.7969C9.24312 30.7214 9.23733 30.646 9.23733 30.5646L9.24892 26.7259V19.6176C7.04082 19.9544 6.00342 21.3889 6.00342 24.0545Z" fill="white"/>
<path d="M25.7666 34.0317V19.8673H22.5096V25.3089H20.6724V28.1371H22.5096V34.0317H25.7666Z" fill="white"/>
<path d="M19.7104 19.8673H17.0039V34.0259H19.7104V19.8673Z" fill="white"/>
<path d="M35.6132 31.1977H31.707V34.0317H35.6132V31.1977Z" fill="white"/>
<path d="M30.745 19.8673H27.9399V34.0259H30.745V19.8673Z" fill="white"/>
<path d="M35.3931 19.8673H31.7129V22.7014H35.3931V19.8673Z" fill="white"/>
<path d="M35.2656 25.3089H31.7129V28.1429H35.2656V25.3089Z" fill="white"/>
<path d="M44.5791 26.0058L45.6976 32.0978L47.5928 22.9278H47.6276L47.2972 34.0317H50.4036V19.8673H45.8541L44.5791 26.0058Z" fill="white"/>
<path d="M42.3938 19.8673H37.8096V34.0317H40.8986L40.603 22.9278H40.6378L42.8749 34.0317H45.0714L43.269 24.2113L42.3938 19.8673Z" fill="white"/>
<path d="M56.054 19.8673H52.7969V34.0259H56.054V19.8673Z" fill="white"/>
<path d="M63.2578 24.1184H66.2541C66.3932 21.5747 65.0892 19.7047 62.5044 19.5421V22.1439C63.252 22.4052 63.223 23.3808 63.2578 24.1184Z" fill="white"/>
<path d="M60.8701 30.2917V29.2928H57.8564V30.8028C57.8564 32.5508 58.9576 34.1537 61.5424 34.3511V31.7029C61.0208 31.4648 60.8701 30.9073 60.8701 30.2917Z" fill="white"/>
<path d="M62.5046 31.7668V34.357C64.9445 34.206 66.2717 32.7193 66.2717 30.1407C66.2717 28.4217 65.8312 27.4809 65.072 26.7608C64.3128 26.0407 63.258 25.5528 62.0409 24.7572C61.3918 24.3042 60.9687 23.8687 61.0615 23.0208C61.1078 22.6375 61.2701 22.3471 61.5425 22.1961V19.5537C59.375 19.757 58.042 21.0985 58.042 23.5493C58.042 24.7979 58.3955 25.6632 58.9867 26.3833C59.5952 27.1034 60.4471 27.6493 61.4498 28.2359C62.3017 28.7644 63.2638 29.2174 63.2638 30.4079C63.2638 31.0119 63.032 31.5984 62.5104 31.7726" fill="white"/>
<path d="M67.7783 19.8673V22.7014H70.3342V34.0317H73.5913V22.7014H76.2166V19.8673H67.7783Z" fill="white"/>
<path d="M17.3921 15.2271H17.5254C17.6007 15.5756 17.7166 15.8253 17.8789 15.9821C18.0412 16.1389 18.2324 16.2202 18.4411 16.2202C18.6497 16.2202 18.7946 16.1679 18.8815 16.0576C18.9685 15.9473 19.009 15.8369 19.009 15.715C19.009 15.5756 18.9627 15.4652 18.8757 15.3723C18.8178 15.3142 18.6961 15.2388 18.5106 15.1458L18.2151 14.9948C17.9253 14.8497 17.7166 14.6987 17.5949 14.5535C17.4732 14.4083 17.4153 14.2283 17.4153 14.0134C17.4153 13.7869 17.4964 13.5778 17.6529 13.3804C17.8094 13.1829 18.0528 13.0842 18.3831 13.0842C18.5512 13.0842 18.7135 13.1074 18.87 13.1597C19.0264 13.2119 19.1134 13.2352 19.1365 13.2352C19.1887 13.2352 19.2235 13.2178 19.2409 13.1887C19.2583 13.1597 19.2756 13.119 19.2872 13.0726H19.4263V14.0831H19.2988C19.2409 13.8508 19.1308 13.6475 18.9801 13.4791C18.8294 13.3107 18.6439 13.2236 18.4237 13.2236C18.273 13.2236 18.1513 13.2642 18.0586 13.3513C17.9716 13.4384 17.9253 13.543 17.9253 13.6649C17.9253 13.8101 17.9658 13.9205 18.0528 13.996C18.1339 14.0715 18.3194 14.1818 18.6034 14.3212L18.9453 14.4954C19.096 14.5709 19.2177 14.658 19.3104 14.7509C19.4785 14.9252 19.5654 15.14 19.5654 15.3897C19.5654 15.622 19.4727 15.8427 19.293 16.0518C19.1134 16.2609 18.8236 16.3654 18.4237 16.3654C18.331 16.3654 18.2382 16.3538 18.1455 16.3364C18.0528 16.3189 17.9601 16.2899 17.8673 16.2551L17.7804 16.2202C17.7804 16.2202 17.7398 16.2086 17.7224 16.2028C17.705 16.2028 17.6877 16.2028 17.6761 16.2028C17.6297 16.2028 17.5949 16.2144 17.5775 16.2434C17.5602 16.2725 17.5428 16.3131 17.5312 16.3654H17.3979V15.2155L17.3921 15.2271Z" fill="white"/>
<path d="M19.8726 14.3793V14.2515C19.9131 14.2166 19.9653 14.1702 20.0232 14.1179C20.1044 14.0424 20.1797 13.9669 20.2493 13.8914C20.3884 13.7346 20.5159 13.572 20.6318 13.3978H20.7477V14.1818H21.1881V14.3851H20.7477V15.7789C20.7477 15.8427 20.7593 15.9008 20.7767 15.9415C20.8056 16.0112 20.8578 16.046 20.9273 16.046C20.9853 16.046 21.0375 16.0228 21.078 15.9821C21.1186 15.9415 21.1592 15.8776 21.1997 15.8021L21.3099 15.8544C21.2577 15.9821 21.1939 16.0867 21.1186 16.1621C20.9853 16.3015 20.823 16.3712 20.6318 16.3712C20.5217 16.3712 20.4289 16.348 20.3478 16.3073C20.1913 16.226 20.116 16.0867 20.1102 15.8776V14.3735H19.8726V14.3793Z" fill="white"/>
<path d="M21.7325 14.4431C21.9296 14.2283 22.1788 14.1179 22.4801 14.1179C22.7815 14.1179 23.0365 14.2283 23.2278 14.4489C23.4248 14.6696 23.5175 14.9368 23.5175 15.2504C23.5175 15.564 23.419 15.8253 23.2278 16.0518C23.0365 16.2725 22.7815 16.3886 22.4743 16.3886C22.1672 16.3886 21.9238 16.2783 21.7267 16.0634C21.5297 15.8485 21.4312 15.5756 21.4312 15.2562C21.4312 14.9368 21.5297 14.6638 21.7267 14.4489M22.1556 15.9415C22.2078 16.1447 22.3121 16.2435 22.4686 16.2435C22.625 16.2435 22.7178 16.168 22.7641 16.0112C22.8105 15.8544 22.8337 15.6046 22.8337 15.2562C22.8337 14.9077 22.8105 14.658 22.7583 14.507C22.712 14.3502 22.6134 14.2747 22.4686 14.2747C22.3121 14.2747 22.2078 14.3734 22.1556 14.5767C22.1208 14.7103 22.1034 14.9368 22.1034 15.2562C22.1034 15.5756 22.1208 15.8079 22.1556 15.9357" fill="white"/>
<path d="M23.7269 17.1552C23.8254 17.1436 23.895 17.1204 23.9298 17.0855C23.9645 17.0507 23.9819 16.981 23.9819 16.8823V14.5535C23.9819 14.4548 23.9645 14.3909 23.9298 14.356C23.895 14.3212 23.8312 14.298 23.7327 14.2863V14.176H24.6136V14.4838C24.6774 14.3793 24.7353 14.298 24.7991 14.2515C24.9092 14.1644 25.0483 14.1179 25.2164 14.1179C25.4598 14.1179 25.6568 14.2108 25.8191 14.3909C25.9814 14.5709 26.0567 14.8439 26.0567 15.2097C26.0567 15.5466 25.9698 15.8253 25.7959 16.046C25.6221 16.2667 25.4134 16.377 25.17 16.377C25.0425 16.377 24.9266 16.3422 24.8107 16.2667C24.7527 16.226 24.689 16.1738 24.6252 16.0983V16.4874C24.6252 16.6964 24.6252 16.8126 24.6252 16.8358C24.6368 16.9578 24.6658 17.0449 24.718 17.0855C24.7701 17.132 24.8571 17.1552 24.9788 17.1668V17.2598H23.7153V17.1494L23.7269 17.1552ZM25.3323 15.7847C25.3613 15.6627 25.3787 15.4885 25.3787 15.2562C25.3787 14.989 25.3555 14.78 25.3091 14.6232C25.2627 14.4664 25.1642 14.3851 25.0135 14.3851C24.915 14.3851 24.8281 14.4315 24.7469 14.5186C24.6658 14.6057 24.631 14.6696 24.631 14.7103V15.8369C24.631 15.8834 24.6658 15.9415 24.7411 16.0112C24.8165 16.0808 24.8976 16.1215 24.9904 16.1215C25.1584 16.1215 25.2685 16.0112 25.3265 15.7905" fill="white"/>
<path d="M27.4414 16.197C27.5921 16.1854 27.6964 16.1563 27.7486 16.0983C27.8007 16.046 27.8239 15.9357 27.8239 15.773V13.723C27.8239 13.5488 27.7949 13.4384 27.7428 13.392C27.6906 13.3455 27.5863 13.3165 27.4414 13.2991V13.1829H28.9251C29.3192 13.1829 29.6205 13.2468 29.8234 13.3746C30.0262 13.5023 30.1305 13.723 30.1305 14.0366C30.1305 14.1876 30.09 14.3328 30.0088 14.4664C29.9277 14.5999 29.7944 14.7103 29.6089 14.7916C29.4698 14.8497 29.3308 14.8845 29.1917 14.8961C29.0526 14.9077 28.8439 14.9135 28.5715 14.9135V15.7789C28.5715 15.9473 28.6005 16.0634 28.6585 16.1157C28.7164 16.168 28.8207 16.197 28.9772 16.2028V16.319H27.4414V16.2028V16.197ZM29.1221 14.6522C29.267 14.5593 29.3423 14.356 29.3423 14.0482C29.3423 13.8392 29.3076 13.6649 29.238 13.5372C29.1685 13.4094 29.0294 13.3397 28.8323 13.3397C28.7396 13.3397 28.6759 13.3513 28.6353 13.3746C28.5947 13.3978 28.5773 13.4385 28.5773 13.5023V14.7509C28.8497 14.7509 29.0352 14.7161 29.1279 14.658" fill="white"/>
<path d="M30.6001 15.384C30.7971 15.262 31.1159 15.1401 31.5389 15.0123V14.6755C31.5389 14.5361 31.51 14.4374 31.452 14.3735C31.3941 14.3096 31.2897 14.2747 31.1449 14.2747C31.0637 14.2747 30.9942 14.2922 30.942 14.3212C30.8898 14.3502 30.8609 14.3909 30.8609 14.4374C30.8609 14.4548 30.8609 14.4722 30.8725 14.4838C30.8783 14.4954 30.8898 14.507 30.9014 14.5245L30.9304 14.5535C30.9304 14.5535 30.971 14.6058 30.9826 14.6406C30.9942 14.6696 31 14.7045 31 14.7393C31 14.8265 30.971 14.8961 30.913 14.9426C30.8551 14.9891 30.7855 15.0123 30.7102 15.0123C30.6233 15.0123 30.5479 14.9833 30.4842 14.931C30.4204 14.8787 30.3914 14.8032 30.3914 14.7045C30.3914 14.5245 30.4726 14.3851 30.6406 14.2806C30.8087 14.176 31.0116 14.1237 31.255 14.1237C31.5158 14.1237 31.736 14.176 31.9099 14.2747C32.0837 14.3793 32.1707 14.5651 32.1707 14.8439V15.9705C32.1707 16.0054 32.1765 16.0344 32.1938 16.0576C32.2112 16.0809 32.2286 16.0925 32.2518 16.0925C32.2692 16.0925 32.2866 16.0925 32.2982 16.0809C32.3098 16.0751 32.3329 16.0576 32.3619 16.0228L32.4315 16.1215C32.3387 16.226 32.2402 16.3015 32.1301 16.3422C32.0605 16.3712 31.9852 16.3829 31.9099 16.3829C31.7708 16.3829 31.6722 16.3422 31.6085 16.2609C31.5737 16.2144 31.5447 16.1506 31.5274 16.0576C31.3999 16.1854 31.255 16.2783 31.0927 16.3306C30.9942 16.3654 30.9014 16.3829 30.8029 16.3829C30.6754 16.3829 30.5595 16.3422 30.4494 16.2609C30.3393 16.1796 30.2871 16.0518 30.2871 15.8834C30.2871 15.6743 30.3856 15.5117 30.5885 15.384M31.3941 15.9821C31.4288 15.9531 31.4752 15.9124 31.5216 15.8544V15.1749C31.3999 15.2039 31.2897 15.2504 31.197 15.3201C31.0405 15.4304 30.9594 15.5698 30.9594 15.744C30.9594 15.8428 30.9826 15.9241 31.0289 15.9763C31.0753 16.0286 31.1275 16.0576 31.1854 16.0576C31.2608 16.0576 31.3303 16.0344 31.3941 15.9879" fill="white"/>
<path d="M32.5878 16.679C32.6515 16.6267 32.7269 16.6035 32.8196 16.6035C32.8949 16.6035 32.9645 16.6267 33.0109 16.6674C33.063 16.7138 33.0862 16.7661 33.0862 16.8242L33.0746 16.9287C33.0746 16.9287 33.0804 16.9636 33.0978 16.981C33.1152 16.9984 33.1326 17.0042 33.1557 17.0042C33.2369 17.0042 33.3122 16.9403 33.3818 16.8126C33.4223 16.7371 33.4861 16.5803 33.5672 16.3538L33.0224 14.9948C32.9819 14.8961 32.9471 14.809 32.9065 14.7219C32.8718 14.6348 32.8312 14.5535 32.7906 14.4722C32.7501 14.3909 32.7153 14.3386 32.6921 14.3154C32.6689 14.2921 32.6226 14.2805 32.5646 14.2747V14.1644H33.7179V14.2747C33.6484 14.2747 33.5846 14.2863 33.5382 14.2979C33.4919 14.3154 33.4687 14.3444 33.4687 14.3967C33.4687 14.4083 33.4687 14.4199 33.4745 14.4373C33.4745 14.4547 33.4919 14.4896 33.5093 14.536L33.8744 15.4478H33.8976L34.1989 14.6348C34.2163 14.5883 34.2279 14.5477 34.2337 14.5128C34.2453 14.478 34.2511 14.4489 34.2511 14.4257C34.2511 14.3618 34.2279 14.3212 34.1874 14.3037C34.1468 14.2863 34.083 14.2747 33.9961 14.2747V14.1644H34.6974V14.2747C34.6394 14.2747 34.5872 14.2979 34.5525 14.3212C34.5119 14.3502 34.4771 14.4141 34.4366 14.5244L33.7469 16.377C33.6136 16.7197 33.4977 16.9519 33.3992 17.0739C33.3006 17.1959 33.1499 17.2597 32.9471 17.2597C32.7964 17.2597 32.6805 17.2249 32.6052 17.1494C32.5298 17.0739 32.4893 16.9926 32.4893 16.9055C32.4893 16.801 32.524 16.7196 32.5878 16.6732" fill="white"/>
<path d="M34.877 16.2028C34.9581 16.1912 35.016 16.168 35.045 16.1389C35.0914 16.0983 35.1146 16.0228 35.1146 15.9182V14.5535C35.1146 14.4606 35.0972 14.3967 35.0682 14.3618C35.0392 14.327 34.9755 14.3038 34.8827 14.2863V14.176H35.7695V15.9415C35.7695 16.0402 35.7869 16.1099 35.8158 16.1389C35.8448 16.168 35.9028 16.1912 35.9839 16.2086V16.3189H34.8827V16.2086L34.877 16.2028ZM35.1841 13.212C35.2537 13.1423 35.3406 13.1074 35.4391 13.1074C35.5376 13.1074 35.6188 13.1423 35.6883 13.212C35.7579 13.2816 35.7926 13.3688 35.7926 13.4675C35.7926 13.5662 35.7579 13.6533 35.6883 13.723C35.6188 13.7927 35.5376 13.8275 35.4391 13.8275C35.3406 13.8275 35.2537 13.7927 35.1841 13.723C35.1146 13.6533 35.0798 13.5662 35.0798 13.4675C35.0798 13.3688 35.1146 13.2816 35.1841 13.212Z" fill="white"/>
<path d="M36.1582 16.2028C36.2451 16.1912 36.3031 16.168 36.3437 16.1331C36.3842 16.0983 36.4016 16.0286 36.4016 15.924V14.5593C36.4016 14.4664 36.3842 14.3967 36.3553 14.3618C36.3205 14.327 36.2567 14.3038 36.1582 14.2863V14.176H37.0333V14.507C37.1087 14.3967 37.2014 14.3038 37.3115 14.2283C37.4274 14.1528 37.5491 14.1179 37.6882 14.1179C37.8853 14.1179 38.0418 14.1702 38.1519 14.2747C38.262 14.3793 38.3141 14.5593 38.3141 14.8148V15.9357C38.3141 16.0402 38.3315 16.1099 38.3663 16.1389C38.4011 16.168 38.459 16.1912 38.546 16.2028V16.3131H37.4622V16.2028C37.5433 16.1854 37.6013 16.1621 37.6303 16.1331C37.6592 16.1041 37.6766 16.0402 37.6766 15.9357V14.809C37.6766 14.7045 37.665 14.6232 37.6477 14.5709C37.6129 14.478 37.5375 14.4257 37.4332 14.4257C37.3521 14.4257 37.2825 14.4548 37.213 14.5128C37.1492 14.5709 37.0971 14.629 37.0565 14.6871V15.9298C37.0565 16.0286 37.0739 16.0983 37.1029 16.1273C37.1319 16.1563 37.1898 16.1796 37.2709 16.197V16.3073H36.1582V16.197V16.2028Z" fill="white"/>
<path d="M38.8354 16.6442C38.8934 16.5745 38.9861 16.5281 39.1194 16.5048V16.4758C39.0267 16.4409 38.9629 16.4061 38.9223 16.3713C38.8528 16.3074 38.8122 16.2203 38.8122 16.1099C38.8122 15.9822 38.8702 15.8718 38.9803 15.7789C39.0962 15.686 39.2063 15.6221 39.3106 15.5873V15.5582C39.1542 15.4943 39.0267 15.4014 38.9339 15.2853C38.8354 15.1691 38.789 15.0239 38.789 14.8555C38.789 14.6464 38.876 14.4722 39.044 14.3328C39.2121 14.1935 39.4381 14.1296 39.7279 14.1296C39.838 14.1296 39.9366 14.1412 40.0235 14.1644C40.1162 14.1877 40.1858 14.2051 40.2321 14.2283H40.8407V14.478H40.464C40.5219 14.5361 40.5683 14.6058 40.603 14.6871C40.6378 14.7684 40.6494 14.8497 40.6494 14.9426C40.6494 15.233 40.5103 15.4304 40.2379 15.5408C40.093 15.5989 39.9134 15.6279 39.6989 15.6279C39.6526 15.6279 39.6236 15.6279 39.6062 15.6279C39.5946 15.6279 39.5714 15.6279 39.5425 15.6279C39.4961 15.6337 39.4497 15.6569 39.3976 15.6976C39.3454 15.7382 39.3222 15.7905 39.3222 15.8486C39.3222 15.895 39.3338 15.9299 39.3628 15.9589C39.386 15.9822 39.4208 15.9996 39.4671 16.0054C39.4903 16.0054 39.5367 16.0054 39.612 16.0112C39.6873 16.0112 39.7453 16.0112 39.7859 16.0112H40.0872C40.2553 16.017 40.4002 16.046 40.5161 16.0925C40.7363 16.1854 40.8465 16.348 40.8465 16.5803C40.8465 16.8823 40.6784 17.0914 40.348 17.2017C40.1742 17.2598 39.9539 17.2888 39.6874 17.2888C39.4729 17.2888 39.2817 17.2656 39.131 17.225C38.8702 17.1553 38.7427 17.0333 38.7427 16.8649C38.7427 16.801 38.7717 16.7313 38.8238 16.6616M39.299 17.0623C39.3976 17.1146 39.5483 17.1436 39.7395 17.1436C39.9134 17.1436 40.0525 17.132 40.1626 17.103C40.3712 17.0507 40.4755 16.9578 40.4755 16.8184C40.4755 16.7371 40.4466 16.6791 40.3886 16.6384C40.3307 16.5977 40.2205 16.5803 40.0641 16.5803H39.3048C39.2585 16.621 39.2237 16.6558 39.2005 16.6791C39.16 16.7313 39.1426 16.7836 39.1426 16.8359C39.1426 16.9288 39.1947 17.0043 39.2933 17.0623M39.4555 15.2853C39.5019 15.4188 39.5888 15.4885 39.7163 15.4885C39.8322 15.4885 39.9134 15.4363 39.9539 15.3375C40.0003 15.233 40.0177 15.0878 40.0177 14.8904C40.0177 14.6813 39.9945 14.5303 39.9481 14.4374C39.9018 14.3445 39.8264 14.2922 39.7105 14.2922C39.5888 14.2922 39.5077 14.3445 39.4671 14.4432C39.4265 14.5477 39.4092 14.6929 39.4092 14.8904C39.4092 15.0704 39.4266 15.1982 39.4555 15.2853Z" fill="white"/>
<path d="M42.1503 13.1772H44.9322V14.1122H44.8047C44.7583 13.7753 44.6366 13.5488 44.428 13.4327C44.3121 13.3688 44.1382 13.334 43.9122 13.3281V15.7731C43.9122 15.9415 43.9411 16.0577 43.9991 16.1157C44.0571 16.1738 44.1846 16.197 44.37 16.197V16.3132H42.7241V16.197C42.9037 16.197 43.0255 16.168 43.0834 16.1099C43.1414 16.0518 43.1703 15.9415 43.1703 15.7731V13.3281C42.9443 13.334 42.7704 13.3688 42.6545 13.4327C42.4343 13.5546 42.3068 13.7811 42.2778 14.1122H42.1445V13.1772H42.1503Z" fill="white"/>
<path d="M45.0831 14.4431C45.2802 14.2283 45.5294 14.1179 45.8307 14.1179C46.1321 14.1179 46.3871 14.2283 46.5784 14.4489C46.7754 14.6696 46.8681 14.9368 46.8681 15.2504C46.8681 15.564 46.7754 15.8253 46.5784 16.0518C46.3871 16.2725 46.1379 16.3886 45.8249 16.3886C45.512 16.3886 45.2744 16.2783 45.0773 16.0634C44.8803 15.8485 44.7817 15.5756 44.7817 15.2562C44.7817 14.9368 44.8803 14.6638 45.0773 14.4489M45.512 15.9415C45.5641 16.1447 45.6685 16.2435 45.8249 16.2435C45.9814 16.2435 46.0741 16.168 46.1205 16.0112C46.1669 15.8544 46.1901 15.6046 46.1901 15.2562C46.1901 14.9077 46.1669 14.658 46.1147 14.507C46.0683 14.3502 45.9698 14.2747 45.8249 14.2747C45.6685 14.2747 45.5641 14.3734 45.512 14.5767C45.4772 14.7103 45.4598 14.9368 45.4598 15.2562C45.4598 15.5756 45.4772 15.8079 45.512 15.9357" fill="white"/>
<path d="M47.3897 14.4431C47.5868 14.2283 47.836 14.1179 48.1374 14.1179C48.4387 14.1179 48.6937 14.2283 48.885 14.4489C49.082 14.6696 49.1748 14.9368 49.1748 15.2504C49.1748 15.564 49.0762 15.8253 48.885 16.0518C48.6937 16.2725 48.4445 16.3886 48.1316 16.3886C47.8186 16.3886 47.581 16.2783 47.384 16.0634C47.1869 15.8485 47.0884 15.5756 47.0884 15.2562C47.0884 14.9368 47.1869 14.6638 47.384 14.4489M47.8128 15.9415C47.865 16.1447 47.9693 16.2435 48.1258 16.2435C48.2765 16.2435 48.375 16.168 48.4214 16.0112C48.4677 15.8544 48.4909 15.6046 48.4909 15.2562C48.4909 14.9077 48.4677 14.658 48.4156 14.507C48.3634 14.3502 48.2707 14.2747 48.1258 14.2747C47.9693 14.2747 47.865 14.3734 47.8128 14.5767C47.778 14.7103 47.7607 14.9368 47.7607 15.2562C47.7607 15.5756 47.778 15.8079 47.8128 15.9357" fill="white"/>
<path d="M50.519 16.197C50.6929 16.197 50.8088 16.1621 50.861 16.1041C50.9131 16.0402 50.9421 15.9531 50.9421 15.8311V13.6243C50.9421 13.4965 50.9131 13.4152 50.8494 13.3746C50.7914 13.3339 50.6813 13.3107 50.5306 13.2991V13.1829H51.6955L52.6054 15.3317H52.646L53.5501 13.1829H54.715V13.2991C54.5585 13.3107 54.4542 13.3397 54.3963 13.3862C54.3383 13.4326 54.3093 13.543 54.3093 13.723V15.773C54.3093 15.9415 54.3383 16.0576 54.3963 16.1099C54.4542 16.1621 54.5585 16.1912 54.715 16.197V16.3131H53.185V16.197C53.3241 16.197 53.4226 16.168 53.4922 16.1273C53.5617 16.0867 53.5965 15.9937 53.5965 15.8544V13.5836H53.5617L52.4316 16.3131H52.3099L51.1681 13.6417H51.145V15.7382C51.145 15.895 51.1739 16.0053 51.2319 16.075C51.2899 16.1447 51.4174 16.1854 51.6086 16.1912V16.3073H50.5306V16.1912L50.519 16.197Z" fill="white"/>
<path d="M55.7585 14.176V15.7498C55.7585 15.8427 55.7701 15.9124 55.7933 15.9589C55.8338 16.0344 55.9092 16.075 56.0251 16.075C56.1004 16.075 56.17 16.0518 56.2395 16.0053C56.2801 15.9821 56.3323 15.9357 56.3902 15.8776V14.5593C56.3902 14.4606 56.3728 14.3909 56.3322 14.356C56.2917 14.3154 56.2163 14.298 56.1004 14.2921V14.1818H57.0219V15.8544C57.0219 15.9531 57.0393 16.017 57.0741 16.0518C57.1089 16.0866 57.1784 16.1099 57.2885 16.1215V16.226C57.0045 16.2551 56.8249 16.2725 56.7495 16.2841C56.6742 16.2957 56.5583 16.3306 56.3902 16.3828V16.075C56.2801 16.168 56.1874 16.2376 56.1178 16.2783C55.9903 16.348 55.8628 16.3828 55.7237 16.3828C55.573 16.3828 55.4339 16.3364 55.3064 16.2376C55.1789 16.1447 55.1152 15.9705 55.1152 15.7324V14.5593C55.1152 14.4606 55.0978 14.3967 55.0688 14.3676C55.0398 14.3386 54.9761 14.3096 54.8892 14.2921V14.1818H55.7585V14.176Z" fill="white"/>
<path d="M59.0737 14.2573C59.2186 14.3502 59.2881 14.4722 59.2881 14.6232C59.2881 14.7045 59.2591 14.7742 59.2012 14.8323C59.1432 14.8903 59.0737 14.9194 58.9868 14.9194C58.9288 14.9194 58.8766 14.9078 58.8361 14.8787C58.7549 14.8323 58.7144 14.7451 58.7144 14.6174C58.7144 14.6058 58.7144 14.5825 58.7144 14.5593C58.7144 14.5303 58.7144 14.507 58.7144 14.4722C58.7144 14.3909 58.697 14.3328 58.6564 14.3038C58.6158 14.2747 58.5753 14.2573 58.5231 14.2573C58.3782 14.2573 58.2797 14.3386 58.2159 14.4954C58.158 14.6522 58.1232 14.8323 58.1232 15.0355C58.1232 15.3259 58.1812 15.5698 58.2971 15.7673C58.413 15.9647 58.5637 16.0634 58.7607 16.0634C58.8824 16.0634 58.9868 16.0344 59.0737 15.9821C59.1259 15.9531 59.1896 15.895 59.2649 15.8079L59.3519 15.8892C59.2012 16.0983 59.0273 16.2435 58.8245 16.3248C58.7202 16.3654 58.6043 16.3887 58.4825 16.3887C58.187 16.3887 57.9436 16.2841 57.7581 16.0692C57.5726 15.8544 57.4741 15.5988 57.4741 15.291C57.4741 14.9658 57.5726 14.6929 57.7755 14.4664C57.9725 14.2399 58.2391 14.1237 58.5695 14.1237C58.7607 14.1237 58.9346 14.1702 59.0737 14.2689" fill="white"/>
<path d="M59.5023 16.2028C59.5892 16.1912 59.6472 16.168 59.6878 16.1332C59.7283 16.0983 59.7457 16.0286 59.7457 15.9241V13.5604C59.7457 13.4675 59.7283 13.4036 59.6936 13.363C59.6588 13.3281 59.595 13.2991 59.4965 13.2875V13.1772H60.389V14.4838C60.4818 14.3677 60.5861 14.2806 60.6846 14.2167C60.7889 14.1528 60.9048 14.1238 61.0381 14.1238C61.2178 14.1238 61.3627 14.176 61.4786 14.2806C61.5945 14.3851 61.6525 14.5593 61.6525 14.8091V15.9241C61.6525 16.0286 61.6698 16.0983 61.7046 16.1273C61.7394 16.1622 61.7973 16.1854 61.8843 16.2028V16.3132H60.8005V16.2028C60.8817 16.1854 60.9396 16.1622 60.9686 16.1332C60.9976 16.1041 61.0149 16.0402 61.0149 15.9357V14.8091C61.0149 14.7045 61.0034 14.6232 60.9802 14.5709C60.9454 14.478 60.8701 14.4258 60.7657 14.4258C60.6846 14.4258 60.6035 14.4606 60.5165 14.5361C60.4296 14.6116 60.389 14.6581 60.389 14.6871V15.9299C60.389 16.0286 60.4064 16.0983 60.4354 16.1273C60.4644 16.1564 60.5223 16.1796 60.6035 16.197V16.3074H59.4907V16.197L59.5023 16.2028Z" fill="white"/>
<path d="M62.4816 13.212C62.5569 13.1423 62.6496 13.1016 62.754 13.1016C62.8583 13.1016 62.9452 13.1365 63.0264 13.2062C63.1075 13.2758 63.1423 13.392 63.1423 13.5546C63.1423 13.6069 63.1307 13.6824 63.1075 13.7869C63.0843 13.8914 63.0379 14.0599 62.9742 14.298C62.9336 14.4431 62.9104 14.5593 62.8931 14.6522C62.8815 14.7451 62.8583 14.9368 62.8235 15.2213H62.6902C62.6438 14.8613 62.6149 14.6406 62.6033 14.5535C62.5859 14.4664 62.5569 14.3502 62.5105 14.1992C62.4526 14.0018 62.4178 13.874 62.4004 13.8101C62.3772 13.7114 62.3599 13.6301 62.3599 13.572C62.3599 13.3978 62.4004 13.2758 62.4758 13.2062M62.4758 15.7034C62.5511 15.6279 62.6438 15.5872 62.754 15.5872C62.8641 15.5872 62.9568 15.6279 63.0321 15.7034C63.1075 15.7789 63.1481 15.8718 63.1481 15.9821C63.1481 16.0925 63.1075 16.1854 63.0321 16.2609C62.9568 16.3364 62.8641 16.377 62.754 16.377C62.6438 16.377 62.5511 16.3364 62.4758 16.2609C62.4004 16.1854 62.3599 16.0925 62.3599 15.9821C62.3599 15.8718 62.4004 15.7789 62.4758 15.7034Z" fill="white"/>
<path d="M64.0173 13.212C64.0926 13.1423 64.1853 13.1016 64.2897 13.1016C64.394 13.1016 64.4809 13.1365 64.5621 13.2062C64.6432 13.2758 64.678 13.392 64.678 13.5546C64.678 13.6069 64.6664 13.6824 64.6432 13.7869C64.62 13.8914 64.5736 14.0599 64.5099 14.298C64.4693 14.4431 64.4461 14.5593 64.4288 14.6522C64.4172 14.7451 64.394 14.9368 64.3592 15.2213H64.2259C64.1796 14.8613 64.1506 14.6406 64.139 14.5535C64.1216 14.4664 64.0926 14.3502 64.052 14.1992C63.9941 14.0018 63.9593 13.874 63.9419 13.8101C63.9188 13.7114 63.9014 13.6301 63.9014 13.572C63.9014 13.3978 63.9419 13.2758 64.0173 13.2062M64.0173 15.7034C64.0926 15.6279 64.1853 15.5872 64.2955 15.5872C64.4056 15.5872 64.4983 15.6279 64.5736 15.7034C64.649 15.7789 64.6896 15.8718 64.6896 15.9821C64.6896 16.0925 64.6548 16.1854 64.5736 16.2609C64.4983 16.3364 64.4056 16.377 64.2955 16.377C64.1853 16.377 64.0926 16.3364 64.0173 16.2609C63.9419 16.1854 63.9014 16.0925 63.9014 15.9821C63.9014 15.8718 63.9419 15.7789 64.0173 15.7034Z" fill="white"/>
<path d="M79.9142 7.60197C80.0012 7.60197 80.0765 7.60197 80.1519 7.59616C80.2272 7.59616 80.291 7.57293 80.3489 7.5497C80.4069 7.52647 80.4532 7.48582 80.488 7.43355C80.5228 7.38129 80.5402 7.30579 80.5402 7.21287C80.5402 7.13156 80.5228 7.06768 80.4938 7.02122C80.4648 6.97476 80.4243 6.93992 80.3721 6.91088C80.3199 6.88765 80.2678 6.87023 80.204 6.85861C80.1403 6.847 80.0765 6.847 80.0128 6.847H79.5202V7.60778H79.9085L79.9142 7.60197ZM80.0765 6.5392C80.3605 6.5392 80.5691 6.59728 80.7082 6.70762C80.8473 6.82377 80.9111 6.99219 80.9111 7.22448C80.9111 7.43936 80.8531 7.59616 80.7314 7.7007C80.6097 7.79942 80.459 7.8633 80.2852 7.88073L80.969 8.93769H80.5691L79.92 7.90396H79.5259V8.93769H79.155V6.5392H80.0765ZM78.39 8.43244C78.477 8.64731 78.5929 8.83315 78.7435 8.98995C78.8942 9.14675 79.0739 9.26871 79.2767 9.36163C79.4796 9.44874 79.7056 9.4952 79.9432 9.4952C80.1808 9.4952 80.4011 9.44874 80.6039 9.36163C80.8068 9.26871 80.9864 9.14675 81.1371 8.98995C81.2878 8.83315 81.4095 8.64731 81.4906 8.43244C81.5776 8.21756 81.6181 7.98526 81.6181 7.73554C81.6181 7.48582 81.5776 7.25933 81.4906 7.05026C81.4037 6.84119 81.2878 6.65535 81.1371 6.49855C80.9864 6.34175 80.8068 6.21979 80.6039 6.13268C80.4011 6.04557 80.1808 5.99911 79.9432 5.99911C79.7056 5.99911 79.4796 6.04557 79.2767 6.13268C79.0739 6.21979 78.8942 6.34175 78.7435 6.49855C78.5929 6.65535 78.477 6.84119 78.39 7.05026C78.3031 7.25933 78.2625 7.49163 78.2625 7.73554C78.2625 7.97945 78.3031 8.22337 78.39 8.43244ZM78.0539 6.9283C78.164 6.67858 78.3089 6.46371 78.5001 6.27787C78.6914 6.09784 78.9058 5.95265 79.155 5.84812C79.4042 5.74358 79.6708 5.69131 79.949 5.69131C80.2272 5.69131 80.4938 5.74358 80.743 5.84812C80.9922 5.95265 81.2067 6.09784 81.3921 6.27787C81.5776 6.46371 81.7283 6.67858 81.8326 6.9283C81.9427 7.17802 81.9948 7.44517 81.9948 7.73554C81.9948 8.02591 81.9427 8.30467 81.8326 8.55439C81.7225 8.80411 81.5776 9.0248 81.3921 9.20483C81.2067 9.39067 80.9864 9.53585 80.743 9.63458C80.4938 9.73911 80.233 9.78557 79.949 9.78557C79.665 9.78557 79.4042 9.73331 79.155 9.63458C78.9058 9.53005 78.6856 9.39067 78.5001 9.20483C78.3147 9.01899 78.164 8.80411 78.0539 8.55439C77.9438 8.30467 77.8916 8.03172 77.8916 7.73554C77.8916 7.43936 77.9438 7.17802 78.0539 6.9283Z" fill="#FFED00"/>
</g>
<defs>
<clipPath id="clip0_289_31717">
<rect width="212" height="52" fill="white"/>
</clipPath>
</defs>
</svg>
